<?xml version="1.0" encoding="UTF-8"?>
<svg id="Capa_2" data-name="Capa 2" xmlns="http://www.w3.org/2000/svg" viewBox="0 0 531.4 531.73">
  <g id="Capa_1-2" data-name="Capa 1">
    <g>
      <path d="M531.34,371.82v-.13c-.57-8.5-3.48-16.87-8.9-25.58l-4.71-6.24-9.79-8.36-1.08-.45c-.57-.24-1.44-.6-1.64-.77l-.98-1.07-12.84-4.72-7.33-1.28h-.35l-.45-.73-17.62,2.2-12.64,5.35-4.58,2.93-9.59,9.14-2.65,3.66-1.09,1.87c-1.83,3.27-3.71,6.63-5.03,10.44-7.84-.09-15.89-.18-23.85-.11-.08,0-.17,0-.24,0l-.41-.75-.93-.75c-2.05-1.65-3.84-3.45-5.34-5.33l-.46-.58-.59-.45c-1.66-1.27-3.14-2.75-4.41-4.41l-.45-.58-.58-.46c-2.04-1.63-4.04-3.63-6.29-6.31l-.46-.55-.58-.42c-1.32-.96-2.41-2.06-3.36-3.36l-.47-.64-.62-.5c-2.04-1.65-3.84-3.44-5.33-5.33l-.46-.58-.59-.45c-1.66-1.27-3.14-2.75-4.41-4.41l-.45-.58-.57-.46c-2.04-1.63-4.04-3.64-6.29-6.31l-.46-.55-.58-.42c-1.32-.97-2.42-2.07-3.36-3.37l-.32-.44-6.69-6.38-4.72-2.13-2.89-1.28-7.62-.19-.27,.02c-4.35,.28-7.49,.48-10.01,3.08-2.55,2.63-2.67,5.98-2.81,10.23-.08,2.29-.02,4.54,.03,6.72,.05,2.25,.11,4.38,.02,6.47-.12,2.79,.63,5.03,2.25,6.67,2.42,2.46,5.62,2.37,6.83,2.34,.22,0,.45-.02,.68-.03l.72,.53c1.34,.98,2.47,2.11,3.45,3.45l.54,.74,.73,.54c2.01,1.49,3.89,3.38,5.91,5.95l.51,.64,.66,.48c1.32,.97,2.48,2.13,3.45,3.45l.48,.66,.64,.51c2.57,2.03,4.46,3.91,5.95,5.92l.54,.73,.74,.54c1.32,.96,2.48,2.12,3.45,3.45l.54,.74,.73,.54c2.01,1.49,3.89,3.38,5.91,5.95l.51,.64,.66,.48c1.32,.97,2.48,2.13,3.45,3.45l.48,.66,.64,.51c2.57,2.03,4.46,3.91,5.95,5.92l.54,.73,.73,.54c1.32,.97,2.48,2.13,3.45,3.45l.53,.72,.71,.54c3.01,2.26,6.05,4.36,10.2,5.19l.58,.12h10.91c2.21,0,4.42-.02,6.64-.02,5.38-.02,10.91-.04,16.42-.11,.32,.92,.64,1.82,.96,2.71,.23,.64,.46,1.28,.69,1.92l.15,.43,.21,.4c4.56,8.55,10.84,15.65,18.67,21.11l.35,.25,9.48,4.75h.82c.13,.08,.27,.17,.39,.25l1.39,.9,14.35,2.09,11.61-.89,8.58-2.64,6.44-2.83,.34-.21c9.21-5.68,16.46-13.37,21.55-22.86l.24-.49c3.57-8.43,5.18-17.21,4.79-26.11Zm-62.29,17.99l-2.09,3.16,2.08-4.1c-2.34-1.25-3.99-3.37-5.69-7.31l-.25-.53c-.08-.16-.17-.36-.24-.52l.13-.69-.3-1.27c-1.08-4.54-.12-9.16,2.72-13.01,3.03-4.11,7.76-6.66,12.97-7,3.36-.22,5.99,.37,8.25,1.83l.35,.23,.38,.18c1.84,.85,3,1.73,3.76,2.86l1.97,2.51,.42,.51c1.05,1.14,1.7,2.67,2.03,4.83l.09,.47c.88,3.65,.64,6.62-.74,9.34l-.2,.38-.14,.41c-1.23,3.65-3.6,6.25-7.53,8.21-5.45,2.81-10.25,2.89-15.09,.24l-1.42-.76h-.08s-.97-.64-.97-.64l-.44,.66h-.09s.06,0,.09,0Z"/>
      <path d="M462.23,477.99c-.28-4.27-.92-8.58-1.89-12.81l-1.1-3.9-4.61-9.45-.26-.37c-5.71-8.25-12.95-14.75-21.52-19.32l-.48-.25-13.16-4.21-4.97-.39-1-.17h-8.19l-12.64,2.72-.67,.73c-1.59,.68-3.08,1.29-3.85,1.48-.81-.59-2.45-2.22-4.04-3.81l-11.12-11.13c-11.54-11.54-23.07-23.09-34.61-34.62-2.28-2.28-4.58-4.53-6.88-6.79-1.06-1.04-2.13-2.08-3.19-3.12l-1.09-1.07-7.61-2.17-2.02-.12-.59,.08c-.76,.11-1.91,.26-2.42,.13l-.76-.19-65.58,.09-5.13-.21h-.09c-6.76,.05-13.71-1.07-22.66-3.61l-.4-.1c-3.25-.69-6.66-1.49-9.46-3.1l-.5-.29-.55-.19c-8.51-2.88-16.34-7.08-23.28-12.47l-.49-.38-.56-.27c-1.74-.85-3.22-1.96-4.5-3.38l-.61-.67-.78-.46c-1.6-.95-3.11-2.29-4.89-4.34l-.34-.39-.4-.33c-2.4-1.95-3.92-3.47-5.06-5.09l-.44-.62-.58-.49c-1.3-1.1-2.46-2.46-3.53-4.15l-.36-.57-.48-.47c-1.43-1.41-2.67-3.07-3.68-4.92l-.2-.37-.25-.34c-4.99-6.67-8.94-14.07-11.76-22l-.29-.69c-1.66-3.29-2.83-6.95-3.5-10.87l-.18-.74c-2.37-7.79-3.49-14.94-3.43-21.87v-.29s-.09-1.07-.09-1.07l-.05-8.69,.14-1.61v-.3c-.08-6.47,1.02-13.44,3.46-21.93l.11-.44c.83-3.98,1.71-7.22,3.29-10.09l.28-.5,.18-.55c2.45-7.53,6.25-14.72,11.61-22.01l.31-.42,.23-.46c.93-1.86,2-3.31,3.27-4.43l.75-.65,.5-.86c1-1.73,1.96-2.89,3.03-3.64l.97-.69,.63-1c1.37-2.17,3.55-4.05,5.86-6.03l.75-.65,.34-.41c1.07-1.32,2.65-2.46,4.3-3.61l.44-.3,.38-.38c1.11-1.1,2.3-2.2,3.55-2.75l.75-.33,.64-.52c6.07-5,13.24-8.97,22.57-12.52l1.41-.62c2.88-1.29,5.6-2.51,8.23-2.74l.78-.07,.73-.26c6.13-2.21,12.68-3.44,20.03-3.75l3.08-.13,.11-.17h1.36l.75-.38c.13,0,.29,.02,.41,.02,1.68,.1,5.18,.3,8.16-2.5l1.89-1.78v-11s-.09-.52-.09-.52c-.46-2.55-.27-5.38-.07-8.38l.04-2.14c.18-3.62-1.28-5.74-2.56-6.88-1.3-1.17-3.61-2.42-7.22-1.76-.19,.02-.73-.02-1.12-.06-.5-.04-.99-.08-1.48-.09h-.32s-12.16,.97-12.16,.97l-1.49,.13-.9-.15-1.57,.64c-1.1,.45-2.55,.62-4.23,.82-.52,.06-1.04,.12-1.56,.19l-.46,.08c-9.11,1.94-17.83,5-26.27,7.96l-1.05,.41c-7.85,3.85-16.2,8.1-24.11,13.18l-6.24,4.24-.47,.51c-1.23,1.34-2.81,2.58-4.96,3.9l-.49,.3-.42,.39c-6.19,5.68-12.35,11.84-18.31,18.33l-5.11,6.68-4.04,5.74-.17,.25c-5.04,7.98-9.25,16.48-12.97,23.98l-4.47,12.49-3.23,11.27-2.36,14.29-.95,11.38-.02,12.29,.9,12.08,2.19,12.32,.09,1.12,3.2,11.52,4.34,12.16,.2,.5c4.21,9.07,9.03,17.65,12.75,24.1l.5,.87,.75,.66c.9,.79,1.64,2.18,2.5,3.82l.58,1.1,.97,.78c.93,.75,1.73,2.05,2.59,3.55l.3,.53,.4,.46c5.84,6.6,12.14,12.97,19.25,19.5l6.54,5.15,5.83,4.1,.22,.15c7.12,4.52,15.15,8.85,25.27,13.61l.56,.23c6.82,2.41,14.91,5.15,23.18,7.23l14.76,2.5,.67,.08c16.62,.9,33.43,.81,49.69,.72,9.02-.05,18.34-.1,27.49,.02,.19,0,.36,0,.53,0l6.62,6.72,.53,.35c1.24,.82,2.23,1.81,3.05,3.05l.52,.78,.73,.59c2.26,1.81,4.32,3.88,6.13,6.13l.6,.74,.8,.52c1.42,.93,2.67,2.42,4.13,4.15l7.12,7.29,.53,.35c1.24,.82,2.23,1.82,3.05,3.05l.52,.79,.73,.59c2.26,1.81,4.32,3.88,6.13,6.13l.6,.74,.8,.52c1.42,.93,2.68,2.43,4.13,4.16l5.85,6c-.77,1.55-1.36,3.11-1.9,4.53-.29,.77-.59,1.55-.91,2.31l-.27,.64-2.09,12.19v3.85l.03,.04-.04,.12,1.88,12.25,4.66,11.39,3.84,6.2,5.97,6.48,6.22,5.13,.33,.21c7.68,4.82,16.46,7.83,26.08,8.94l.48,.04c.64,.02,1.27,.03,1.91,.03,7.93,0,15.89-1.78,24.27-5.41l.6-.3c7.44-4.28,13.35-9.3,17.92-15.25l1.06,5.22,6.99-20.26,.96-.98-.06-.6,.09-.06,1.49-13.03v-1.17s-.02-1.9-.02-1.9Zm-36.18,6.39l-.26,.76-.03,.5c-.12,.21-.35,.55-.52,.81l-.5,.75-.18,.38c-1.7,3.6-4.29,5.89-8.13,7.22l-.51,.18-.47,.27c-.81,.46-1.17,.61-1.34,.66l-.76-.09-.85,.14c-5.31,.88-9.48-.28-13.12-3.66l-.6-.55-.72-.38c-.93-.48-1.64-1.76-2.71-3.8l-.32-.57c-2.21-3.59-2.71-7.04-1.59-10.86l.12-.46c1.43-6.72,6.23-11.66,12.25-12.59l.51-.08,.48-.16c1.19-.4,2.37-.6,3.58-.6,2.11,0,4.29,.6,6.67,1.82l.36,.17c2.84,1.22,4.78,2.86,6.12,5.17l.28,.44c3.29,4.7,4,9.31,2.25,14.52Zm33.8,10.72l-.32-.12,.49-.36c-.05,.16-.11,.33-.17,.48Zm.4-1.69c-.17,.5-.44,1.03-.85,1.52l-4.57-1.79,5.33-1.08c.09,.44,.12,.9,.09,1.35Z"/>
      <path d="M459.58,107.48l-.45,.15-6.65,3.47-.51,.3c-8.44,5.52-15.22,13.12-20.18,22.59l-.21,.4-.15,.43c-.15,.43-.31,.86-.48,1.29-.28,.73-.58,1.51-.85,2.37h-34.69l-10.93,.04-.63,.14c-3.76,.83-7.2,2.73-10.51,5.8l-.45,.42-.36,.51c-.86,1.22-1.88,2.24-3.13,3.13l-.4,.29-7.98,7.98-.29,.41c-.86,1.22-1.88,2.24-3.12,3.12l-.4,.29-7.98,7.98-.29,.41c-.86,1.22-1.88,2.24-3.13,3.13l-.4,.29-7.98,7.98-.29,.41c-.87,1.22-1.89,2.24-3.13,3.13l-.93,.67-.03,.05c-11.54-.21-23.22-.2-35.16-.16-7.03,.02-14.05,.08-21.07,.13-6.48,.05-12.96,.1-19.43,.12-2.06,.01-4.11-.1-6.3-.21-1.04-.05-2.08-.1-3.12-.14l-3.4-.13-.28,.43-2.66,.27-11.4,1.88-.68,.16c-8.64,2.5-17.15,6.5-25.3,11.89l-5.18,4.05-6.81,6.75-4.26,5.31-.18,.25c-5.41,7.58-8.99,16.01-11.77,23.28l-.24,.57-2.67,16.04v10.4l1.8,11.69,.11,.39c2.98,10.08,6.86,18.62,11.87,26.11l3.99,5.17,7.95,8.13,.57,.36c1.27,.82,2.58,1.69,3.4,2.68l.59,.71,.78,.5c7.09,4.57,14.74,8.33,23.38,11.5l.48,.17,.5,.09c9.21,1.71,17.84,2.54,26.37,2.54,.23,0,.46,0,.69,0,2.45-.01,6-.35,8.48-3.13,2.5-2.79,2.33-6.33,2.19-7.85v-12.02l-.08-.47s0-.01,0-.02c-.15-3.89-.32-6.74-2.6-9.14-2.43-2.57-5.49-2.75-9.38-2.98h-6.26s-.38-.13-.38-.13l-.99,.04c-.49,.02-.97,.05-1.46,.09-.38,.03-.83,.08-1.16,.07l-.83-.51-1.27-.17c-7.88-1.04-14.19-4.04-19.29-9.14l-.63-.63-.78-.42c-1.07-.57-1.83-1.34-2.4-2.4l-.37-.69-.53-.57c-5.03-5.4-7.98-12.06-9.02-20.33-.55-4.61-.7-8.42,.33-12.03l.12-.43,.06-.45c2.02-15.57,18.34-30.96,33.56-31.67l3.07-.14,.12-.19,.57-.14c1.54-.39,3.41-.27,5.56-.13,.43,.03,.85,.06,1.28,.08h82.89s.55-.02,.55-.02c.73-.07,1.55-.09,2.42-.11,3.27-.08,7.33-.19,11.28-2.83l.41-.27,7.21-6.74,.32-.42c1.22-1.62,2.66-3.07,4.29-4.29l.34-.25,6.92-6.92,.25-.34c1.22-1.62,2.66-3.07,4.29-4.29l.34-.25,6.92-6.92,.25-.34c1.22-1.62,2.66-3.07,4.29-4.29l.34-.25,7.18-7.18,.35-.6c.06,0,.13,0,.22,0,13.06,.13,24.65,.14,35.37,.01l.02,.05c1.97,4.56,4.34,9.05,7.05,13.34l1.73,2.21,.14,.16c2.79,3.22,5.91,5.83,8.93,8.36,.67,.56,1.34,1.12,2,1.69l1.44,1.21,.63,.07,.48,.26c4.15,2.23,8.04,3.94,11.91,5.25l.37,.13,8.55,1.68c-1.68,.24-3.3,.54-4.9,.85-1.21,.23-2.42,.46-3.64,.66l-.6,.09-.56,.21c-9.75,3.62-18.01,9.16-24.57,16.47l-.28,.32-.84,1.25-7.08,11.84-.75,2.58h-93.54l-.67-.02-.74,.19c-.2,.03-.78-.01-1.2-.04-1.94-.13-5.18-.36-8.32,1.84l-2.56,1.79v7.63l.17,1.01c.28,3.42,.27,6.96-.01,10.54l-.1,1.26,.23,.65c0,.08-.02,.16-.03,.25-.18,1.62-.64,5.91,3.3,8.98l1.52,1.19,1.53,.06,.1,.07,88.67-.05,.06,.05h1.74s.01,0,.01,0h1.56s.01,0,.01,0h1.56s.01,0,.01,0h1.56s.01,0,.01,0h1.56s.01,0,.01,0l3.67-.02,1.22,3.83,6.17,10.67,.75,.41s0,.02,.01,.03l.43,.9,.7,.71c6.75,6.95,14.52,12.17,23.09,15.51l.59,.25,1.95,.33c4.7,1.15,8.42,1.71,12.03,1.82h.17s.09,0,.14,0c4.43,0,8.94-.35,13.39-1.05l.75-.17c10.17-2.95,18.95-8.1,26.09-15.31l2.18-2.65c6.13-8.09,9.96-16.95,11.37-26.34l.07-.44v-12.72l-.07-.46c-1.44-9.27-5.16-17.85-11.36-26.24l-2.72-2.95-.19-.19c-3.95-3.84-8.41-6.93-12.29-9.52l-.7-.47-12.77-4.81-7.9-.74c2.56-.14,5.16-.42,7.8-.96l.44-.09,11.2-4.12,7.1-4.12,7.1-6.2,5.23-6.5,.4-.55c4.82-7.61,7.79-16.16,8.82-25.41l.06-.51-.03-.51c-.07-1.21-.08-2.47-.09-3.81-.02-2.91-.03-6.21-.81-9.59l-.33-1.83-3.66-10.64-8.32-12.24-1.22-1.23c-6.69-6.7-15-11.5-25.39-14.67l-.6-.18-13.85-1.22-13.29,2-1.1,.84c-.21,.07-.66,.18-.99,.25-.59,.14-1.33,.31-2.11,.57Zm4.07,42.34l.2-.38,.14-.4c1.06-2.94,2.69-4.94,5.13-6.31l.42-.26c3.32-2.24,6.5-3.35,9.68-3.35,2.55,0,5.1,.72,7.71,2.14l.34,.17c3.51,1.63,5.9,4.31,7.5,8.43,.19,.6,.39,1.2,.6,1.79,.93,2.71,1.27,3.91,.82,4.96l-.41,.96-.06,1.04c-.23,3.78-1.62,6.63-4.36,8.97l-.73,.63-.5,.83c-.37,.6-1.15,1.14-2.7,1.85l-.42,.21c-2.9,1.61-5.67,2.29-8.42,2.07-8.87-.82-15-6.28-16-14.25l-.14-.74c-.72-2.81-.33-5.46,1.2-8.36Zm14.5,93.49c7.13-1.3,15.41,4.49,17.05,11.92l.21,.72c1.1,3.1,1.03,6.11-.21,9.21l-.12,.33c-2.49,7.44-9.07,11.95-16.71,11.51l-.47-.03-.93-.41-1.02-.08c-5.56-.43-11.22-5.41-12.64-11.11l-.1-.4-.15-.38c-1.26-3.16-1.26-6.11,0-9.29l.22-.68c.91-3.44,2.77-6.02,5.7-7.87l.36-.23,.32-.28c2.28-1.94,4.61-2.85,7.31-2.85h.64s.55-.1,.55-.1Z"/>
      <path d="M286.66,427.19c-.14,0-.54-.08-.84-.14-.35-.06-.69-.13-1.04-.18l-3.78-.57-2.12,3.19c-2.41,3.63-2.13,7.36-1.95,9.82,.06,.85,.14,1.82,.04,2.24l-.17,.69v24.32l.05,2.45c.03,1.35,.06,2.71,.07,4.06h-.01c-3.57,.32-7.19,.32-10.75,0l-.27-.02h-12.04s-.53,.03-.53,.03c-3.57,.32-7.19,.32-10.77,0l-12.3-.02-.49,.02c-3.59,.29-6.88,.31-10.02,.05-.02-1.95,.05-3.91,.2-5.84l.17-1.01v-11.28l-.17-1.01c-.27-3.43-.27-6.9,0-10.31l.17-1.01v-6.31l-2.75-7.68-.9-.93c-2.73-2.82-5.83-4.92-9.21-6.22l-.89-.34-.95-.05c-1.5-.08-3.15-.65-5.05-1.32-.75-.26-1.52-.53-2.33-.78l-9.67-6.02,.09,2.78c-5.12-1.91-10.22-4.26-15.23-7.02l-.41-.22-.44-.16c-2.97-1.08-5.79-2.9-8.79-4.84l-.94-.61-4.34-1.41-.68-.06c-6.38-.56-12.11,1.72-17.01,6.78-4.23,4.37-8.62,8.75-12.88,12.99-3.22,3.21-6.53,6.51-9.79,9.83-11.62-11.78-24.2-24.38-40.25-40.29,.39-.38,.77-.75,1.13-1.1,.45-.44,.9-.89,1.37-1.32l.96-.96,.29-.31c3.2-3.69,6.69-7.18,10.38-10.39l11.76-11.86,1.09-1.75c2.92-5.27,3.31-11.03,1.13-16.66l-1.26-2.6-.34-.45c-1.74-2.3-3.02-4.62-3.88-7.07l-.21-.59-.33-.54c-2.27-3.71-4.13-7.77-5.51-12.07l-.17-.52-.26-.48c-1.42-2.64-2.54-5.73-3.44-9.45l-.15-.6-.26-.56c-1.08-2.29-1.75-4.92-2.45-7.7-.35-1.36-.7-2.77-1.12-4.19l-.34-1.17-5.15-6.3-.69-.48c-2.35-1.63-4.83-2.15-6.64-2.54-.74-.16-1.44-.3-1.92-.48l-1.26-.47-1.34,.11c-6.69,.56-13.34,.46-20.38,.36-4.33-.07-8.77-.13-13.24-.03,.03-18.33,.04-37.72-.02-56.91,1.08,.02,2.14,.02,3.19,.02,.91,0,1.82,0,2.81,.02h23.67l5.91-.08,.86,.33,.99-.36h.29s.33-.22,.33-.22l5.87-2.11,1.42-1.42c1.71-1.71,3.66-3.65,5.17-6.24l.42-.71,.21-.8c.25-.96,.49-1.92,.73-2.87,.79-3.2,1.54-6.23,2.76-8.93l.24-.53,.13-.57c.9-3.82,1.98-6.75,3.41-9.24l.32-.55,.19-.61c1.33-4.13,2.86-7.61,4.7-10.64l.21-.35,.16-.38c1.63-3.77,3.21-6.69,5-9.18l.3-.42,1.47-3.07,.14-.47c1.53-5.24,1.71-13.02-6.13-20.32-1.68-1.56-3.27-3.26-4.96-5.07-.78-.84-1.57-1.67-2.36-2.5l-1.13-1.11c-3.7-3.25-7.23-6.78-10.48-10.49l-1.93-1.94-.32-.29c-.44-.38-.9-.77-1.33-1.15,.33-.34,.65-.67,.92-.94,5.55-5.6,11.23-11.28,16.73-16.76,7.41-7.4,15.05-15.03,22.54-22.66,2.78,2.81,5.59,5.61,8.33,8.33,4.57,4.55,9.3,9.26,13.82,13.97,5.61,5.84,11.75,8.14,18.79,7.01l.61-.1,4.48-1.69,.73-.58c2.29-1.83,4.93-3.28,7.82-4.33l.63-.23,.57-.36c3.02-1.93,6.58-3.56,11.2-5.13l2.21-.75,.13-.23c3-1.37,6.21-2.71,9.46-3.4l.67-.14,.62-.29c2.96-1.37,6.3-2.12,9.75-2.83l1.07-.22,1.49-.93c2.1-1.31,4.71-2.93,6.72-5.72l.45-.62,.28-.72c.15-.39,.32-.77,.5-1.15,.7-1.56,1.66-3.7,1.75-6.36v-.11s0-35.6,0-35.6l56.79,.09,.04,29.92v.22c.02,.38,.04,.77,.05,1.15,.03,.71,.07,1.42,.07,2.15,.02,4.14,.03,7.13,2.42,9.69,2.42,2.59,5.55,2.78,9.52,3.02l.39,.02,.39-.03c4.19-.29,7.62-.28,10.79,.03l1.37,.13,.76-.28c.07,0,.13,.01,.2,.02,1.47,.12,4.9,.41,7.79-2.36l1.86-1.78v-13.49c-.03-14.56-.04-29.12-.06-43.68-.02-13.13-6.95-20.07-20.06-20.07h-19.87c-22.82,0-45.64,0-68.46,0-11.6,0-18.08,5.85-19.27,17.37l-.03,.33,.08,12.12-.08,11.83,.08,11.81-.04,3.05-2.48,.76-24.18,10.21c-1.3-1.41-2.63-2.75-3.92-4.06-.74-.75-1.48-1.5-2.22-2.26l-.32-.31c-3.97-3.54-7.77-7.35-11.31-11.32l-.33-.37-.39-.31c-1.65-1.33-3.21-2.94-4.86-4.64-2.29-2.37-4.67-4.81-7.66-6.92l-.48-.34-.54-.24c-7.95-3.54-15.74-1.88-21.91,4.68-1.67,1.77-3.43,3.46-5.3,5.24-.86,.82-1.72,1.64-2.63,2.53l-47.26,47.29c-.87,.89-1.75,1.79-2.62,2.68-1.95,1.98-3.96,4.02-5.92,6.1-7.08,7.52-7.01,17.97,.17,25.41,2.05,2.13,4.14,4.23,6.22,6.32,.94,.95,1.89,1.9,2.84,2.87l11.76,11.81,.09,.09c.86,.83,1.72,1.65,2.59,2.47,1.26,1.19,2.47,2.34,3.65,3.5-.25,.47-.48,1-.66,1.58l-9.33,21.91-.06,.58c-.35,1.03-.62,1.92-.84,2.68-.94-.05-2.07-.1-3.41-.12h-.34s-.34,.02-.34,.02c-3.02,.28-6.1,.28-9.16,0l-13.88-.03-.58,.03c-3.04,.29-6.1,.29-9.11,0l-.34-.03h-.34c-9.44,.17-14.41,5.08-16.91,9.18C.08,208.99,.1,212.94,.11,215.83c0,.86,0,1.66-.04,2.37L0,242.23l.03,.62c.32,3.08,.31,6.39-.02,10.75l-.02,12.24,.03,.62c.32,3.07,.31,6.39-.02,10.75l-.02,12.24,.03,.62c.32,3.07,.31,6.39-.02,10.75l-.02,.32,.05,1.58c.03,.83,.06,1.67,.07,2.51,.14,10.67,6.35,17.47,17.05,18.66l36.57,.04,.47-.08h.02c.88-.04,1.79-.07,2.5-.07,.26,.78,.57,1.82,.85,2.79l9.98,24.11c-1.58,1.28-2.93,2.68-4.16,3.95-.6,.62-1.2,1.25-1.82,1.85l-.39,.42c-3.44,4-7.19,7.75-11.16,11.17l-3,3.09c-2,2.08-3.99,4.17-6,6.23-7.98,8.19-7.95,18.4,.08,26.65,1.68,1.73,3.36,3.46,5.04,5.18l2.38,2.45,47.19,47.21,13.52,12.79,1.23,.42c8.76,2.99,16.53,.84,22.48-6.21,1.12-1.33,2.52-2.61,4-3.97,.75-.69,1.51-1.38,2.24-2.09l12.69-12.64,.09-.09c.7-.73,1.41-1.45,2.12-2.16,1.27-1.28,2.56-2.59,3.83-3.98l23.48,10.02,.69,.12c.23,.04,.47,.07,.7,.1,.07,0,.13,.02,.2,.03,.64,.2,1.31,.41,1.88,.6-.04,.72-.11,1.61-.18,2.43l-.02,.35,.08,11.96-.08,11.83,.08,11.86v.31c.69,11.48,7.48,17.89,19.12,18.04,.34,0,.81,.05,1.3,.1,.33,.03,.65,.07,.98,.09l12.31,.02,.56-.03c3.54-.33,7.13-.33,10.67,0l12.37,.03,.56-.03c3.54-.33,7.13-.33,10.67,0l12.37,.03,.56-.03c3.54-.33,7.13-.33,10.67,0l12.57,.03h.19c.4-.04,.8-.07,1.2-.1,.71-.06,1.38-.11,1.96-.11,12.4-.1,19.53-7.3,19.56-19.77,.02-10.9,.02-21.8,.02-32.7,0-6.09,0-12.17,0-18.26,0-.9,.04-1.8,.07-2.7,.02-.48,.04-.96,.05-1.44l.18-6.07-10.71-.18c-5.1-.08-10.2-.16-15.29-.27Z"/>
      <path d="M311.55,121.52l-.13,14.82,.05,.38c.02,.18,.05,.36,.08,.54l.02,.13c.09,4.39,.19,7.57,2.58,10.17,2.51,2.72,5.69,2.94,10.09,3.24l.48,.03,.48-.04c.77-.07,1.63-.09,2.54-.11,3.16-.06,7.1-.14,10.98-2.5l.54-.33,8.05-7.58,5.08-5.08,.43-.48c1.75-2.18,3.74-4.17,5.93-5.93l5.44-5.39,.43-.48c1.75-2.18,3.74-4.17,5.93-5.93l5.44-5.39,.44-.49c1.75-2.18,3.74-4.17,5.93-5.93l5.69-5.65c1.5,.86,3.01,1.42,4.37,1.92,.55,.2,1.1,.4,1.63,.63l.65,.23c2.43,.71,4.85,1.25,7.27,1.62l-.62,1.18,.98-1.12c10.12,1.49,20.17,.04,29.98-4.31l.29-.14c8.76-4.46,16.02-10.94,21.58-19.26l.22-.34,5.67-11.61-.09-.43,.16-.61c1.14-4.48,1.85-8.93,2.1-13.25l.16-.93v-2.13l-1.33-10.69-1.91-6.25-3.23-6.85-.3-.56c-2.07-3.4-4.43-6.54-7.06-9.4l1.48-5.73-2.45,4.71c-4.02-4.16-8.65-7.7-13.85-10.59l-.42-.23-12.47-4.52-1.14,.03c-1.06,.03-1.71-.01-1.94-.13l-1.21-.6-9.49-.16-.24,.02c-8.7,.56-17.04,3.38-26.25,8.86l-.6,.36-.96,.94c-.18,.18-.4,.4-.56,.54l-.93,.27-1.76,1.53-1.17,1.15-7.59,8.54-3,4.86-5.08,13-1.3,10.23-.05,3.58,.16,.96c.3,4.31,1.14,8.74,2.56,13.55l2.49,5.87-7.51,7.52-.37,.59c-.33,.54-.74,.94-1.27,1.27l-.59,.37-9.57,9.57-.37,.59c-.33,.54-.74,.94-1.28,1.28l-.59,.37-9.57,9.57-.37,.59c-.33,.54-.74,.94-1.27,1.27l-.63,.39-.52,.53c-.73,.75-1.47,1.5-2.21,2.25-1.58,1.6-3.2,3.24-4.78,4.97-.23,0-.49-.01-.71-.02-1.48-.06-3.71-.14-6.04,.87l-3.46,1.5-.15,3.77Zm95.81-52.51l-.57-.19-.6-.07c-2.75-.33-5.04-1.54-7.22-3.8l-.62-.64-.77-.43c-.16-.09-.52-.29-.92-1.14l-.26-.56-.37-.49c-2.88-3.81-3.69-7.74-2.56-12.37l.24-.97-.09-.99c-.01-.16,.13-.62,.88-1.88l.41-.62-4.83-3.21,5.31,2.33c.94-2.14,2.14-3.59,3.79-4.55l.57-.33,.48-.45c1.6-1.48,3.63-2.38,6.39-2.81l.37-.07c3.39-.75,6.44-.42,9.33,1.03l.59,.26c3.4,1.26,5.67,3.26,7.16,6.28l.31,.55c3.01,4.77,3.4,9.45,1.22,14.69l-.84,1.62-1.2,1.99c-.37,.62-.77,1.19-1.21,1.71l-6.81,4.32c-3.39,1.35-5.86,1.6-8.19,.83Z"/>
      <path d="M312.36,311.52c0-8.48-2.46-11.07-10.97-11.56h-12.16s-.36,0-.36,0c-3.88,.23-6.95,.42-9.38,2.98-2.27,2.4-2.45,5.25-2.6,9.14l-.08,.48v12.02c-.34,3.47,.47,6.24,2.4,8.24,2.28,2.37,5.29,2.77,7.25,2.77,.67,0,1.22-.05,1.58-.08,4.61-.38,9.3-.22,14.26-.05h.3c1.31,.06,4.8,.18,7.41-2.47,2.61-2.64,2.44-6.11,2.39-7.25-.15-3.22-.12-6.45-.08-9.86,.01-1.45,.03-2.91,.03-4.36Z"/>
      <path d="M275.29,150.65c.19-.01,.44-.03,.6-.03l.62,.2,12.72-.04h.29c8.62-.45,11.13-3.06,11.18-11.63,0-.62,.04-1.23,.08-1.84,.02-.35,.04-.7,.06-1.04v-12.06s0-.36,0-.36c-.25-4.19-2.08-7-5.43-8.34l-1.12-.45-8.15,.12-.17,.26h-5.98l-.22-.35-13.94,.21v2.73l-.72,28.53,2.15,1.86c2.99,2.58,6.28,2.36,8.03,2.24Z"/>
      <path d="M310.76,245.09c-2.94-2.95-6.5-2.67-8.01-2.55-.09,0-.18,.02-.27,.02l-.47-.16h-13.15c-.31,.03-.63,.07-.95,.11-4.52-.68-7.2,.89-8.66,2.35-1.42,1.43-2.93,4-2.37,8.29-.01,.09-.02,.17-.03,.26l-.04,12.41,.02,.5c.02,.22,.04,.44,.08,.66-.57,4.33,.96,6.89,2.38,8.29,1.37,1.35,3.81,2.79,7.83,2.31,.17,.03,.34,.07,.5,.09l.44,.07h13.99s10.34-.95,10.34-.95l.12-29.94-1.75-1.76Z"/>
      <path d="M266.26,254.07v-.32c-.2-3.57-.35-6.39-2.74-8.72-2.32-2.26-5.05-2.4-8.5-2.51-.11-.02-.22-.04-.33-.05l-.44-.06h-13.19l-.47,.16c-.09,0-.18-.02-.27-.02-1.52-.12-5.08-.4-8.01,2.55l-1.75,1.76,.12,29.94,10.04,.93,14.33,.03,.44-.07c.16-.02,.32-.05,.49-.09,3.96,.49,6.39-.93,7.76-2.26,2.06-2.01,2.88-4.81,2.43-8.33,.03-.23,.06-.45,.08-.68l.02-12.26Z"/>
    </g>
  </g>
</svg>